<svg version="1.1" xmlns="http://www.w3.org/2000/svg" viewBox="-3.852453718816917 -5.247477322065075 7.25014385765724 9.997114110862608" fill="none" stroke="black" stroke-width="0.6%" vector-effect="non-scaling-stroke">
    <path d="M -0.46574 -3.04163 A 4 1.0613 104.96171 0 1 0.56696 -3.98885 A 4 1.0613 104.96171 0 1 0.98906 -2.74492" />
    <path d="M -0.51207 2.87239 A 4 1.0613 104.96171 0 1 -1.49843 3.73993 A 4 1.0613 104.96171 0 1 -0.46574 -3.04163" />
    <path d="M -1.39721 -3.29055 A 4 1.0613 284.96171 0 0 -2.4299 3.49101" />
    <path d="M -0.36452 -4.23777 A 4 1.0613 284.96171 0 0 -1.39721 -3.29055" />
    <path d="M -0.46574 -2.31234 A 3 0.79597 104.96171 0 1 0.33478 -3.01397" />
    <path d="M -1.21335 2.77919 A 3 0.79597 104.96171 0 1 -0.46574 -2.31234" />
    <path d="M 1.39721 -1.63217 A 2.75 0.72964 104.96171 0 1 2.13101 -2.27534 L 0.33478 -3.01397" />
    <path d="M 2.13101 -2.27534 A 2.75 0.72964 104.96171 0 1 0.7119 3.03506 L -1.21335 2.77919" />
    <path d="M 0.7119 3.03506 A 2.75 0.72964 104.96171 0 1 1.39721 -1.63217" />
    <path d="M 0.56696 -3.98885 L -0.36452 -4.23777" />
    <path d="M -1.49843 3.73993 L -2.4299 3.49101" />
</svg>